<svg width="18" height="18" viewBox="0 0 18 18" fill="none" xmlns="http://www.w3.org/2000/svg">
<g clip-path="url(#clip0_1071_334)">
<path d="M17.6862 9.16862C17.6862 8.43117 17.626 7.89303 17.4957 7.33496H9.02344V10.6634H13.9965C13.8962 11.4906 13.3548 12.7363 12.1516 13.5734L12.1348 13.6848L14.8135 15.7475L14.9991 15.7659C16.7036 14.2013 17.6862 11.8992 17.6862 9.16862Z" fill="#0079FB"/>
<path d="M9.0241 17.9384C11.4605 17.9384 13.5058 17.1411 14.9998 15.7659L12.1523 13.5734C11.3903 14.1015 10.3676 14.4703 9.0241 14.4703C6.63784 14.4703 4.61254 12.9057 3.89057 10.7432L3.78475 10.7521L0.999317 12.8947L0.962891 12.9954C2.44678 15.9252 5.49479 17.9384 9.0241 17.9384Z" fill="#34A853"/>
<path d="M3.89019 10.7431C3.69969 10.185 3.58944 9.58704 3.58944 8.9692C3.58944 8.35129 3.69969 7.75338 3.88016 7.19531L3.87512 7.07645L1.05478 4.89941L0.962507 4.94304C0.350926 6.15886 0 7.52419 0 8.9692C0 10.4142 0.350926 11.7795 0.962507 12.9953L3.89019 10.7431Z" fill="#FBBC05"/>
<path d="M9.0241 3.46802C10.7185 3.46802 11.8615 4.19551 12.5132 4.80346L15.0599 2.33196C13.4959 0.886947 11.4605 0 9.0241 0C5.49479 0 2.44678 2.01305 0.962891 4.94292L3.88055 7.19519C4.61254 5.03265 6.63784 3.46802 9.0241 3.46802Z" fill="#EB4335"/>
</g>
<defs>
<clipPath id="clip0_1071_334">
<rect width="17.6949" height="18" fill="white"/>
</clipPath>
</defs>
</svg>
